<?xml version="1.0" encoding="UTF-8"?>
<svg id="Calque_1" xmlns="http://www.w3.org/2000/svg" version="1.1" viewBox="0 0 376.6 376.6">
  <!-- Generator: Adobe Illustrator 29.0.0, SVG Export Plug-In . SVG Version: 2.1.0 Build 186)  -->
  <defs>
    <style>
      .st0 {
        fill: #e30613;
      }

      .st0, .st1 {
        stroke: #1d1d1b;
        stroke-miterlimit: 10;
      }

      .st1 {
        fill: #1d1d1b;
      }
    </style>
  </defs>
  <g id="Calque_2">
    <g id="LOGO">
      <rect class="st0" x="141.9" y="0" width="37.8" height="301.3"/>
      <polygon class="st0" points="0 301.3 37.7 301.3 37.7 230.3 118.1 230.3 118.1 197.3 37.6 197.3 37.6 167.4 134.5 167.4 134.5 129.7 0 129.7 0 301.3"/>
      <path class="st1" d="M356.6,261.2c-11.1,0-20,9-20,20.1s9,20,20.1,20,20-9,20-20.1c0,0,0,0,0,0,0-11-9-20-20-20,0,0,0,0,0,0Z"/>
      <polygon class="st1" points="267.3 261.3 233.2 197.3 190.5 197.3 245.8 301.2 205.9 376.7 248.5 376.7 344 197.3 301.3 197.3 267.3 261.3"/>
    </g>
  </g>
</svg>